# AST/ASF file generated using VICON BodyLanguage
# -----------------------------------------------
:version 1.10
:name VICON
:units
  mass 1.0
  length 0.45
  angle deg
:documentation
   .ast/.asf automatically generated from VICON data using
   VICON BodyBuilder and BodyLanguage model FoxedUp or BRILLIANT.MOD
:root
   order TX TY TZ RX RY RZ
   axis XYZ
   position 0 0 0  
   orientation 0 0 0 
:bonedata
  begin
     id 1 
     name lhipjoint
     direction 0.64773 -0.699417 0.302095 
     length 2.48597 
     axis 0 0 0  XYZ
  end
  begin
     id 2 
     name lfemur
     direction 0.34202 -0.939693 0  
     length 6.71947  
     axis 0 0 20  XYZ
    dof rx ry rz
    limits (-160.0 20.0)
           (-70.0 70.0)
           (-60.0 70.0)
  end
  begin
     id 3 
     name ltibia
     direction 0.34202 -0.939693 0   
     length 8.08777   
     axis 0 0 20   XYZ
    dof rx
    limits (-10.0 170.0)
  end
  begin
     id 4 
     name lfoot
     direction 0.0808503 -0.222134 0.971658   
     length 2.08264   
     axis -90 7.62852e-016 20   XYZ
    dof rx rz
    limits (-45.0 90.0)
           (-70.0 20.0)
  end
  begin
     id 5 
     name ltoes
     direction 1.53502e-011 -4.22007e-011 1   
     length 1.04662   
     axis -90 7.62852e-016 20   XYZ
    dof rx
    limits (-90.0 20.0)
  end
  begin
     id 6 
     name rhipjoint
     direction -0.610924 -0.726792 0.313919   
     length 2.39233  
     axis 0 0 0  XYZ 
  end
  begin
     id 7 
     name rfemur
     direction -0.34202 -0.939693 0   
     length 6.96955   
     axis 0 0 -20   XYZ
    dof rx ry rz
    limits (-160.0 20.0)
           (-70.0 70.0)
           (-70.0 60.0)
  end
  begin
     id 8 
     name rtibia
     direction -0.34202 -0.939693 0   
     length 8.19584   
     axis 0 0 -20   XYZ
    dof rx
    limits (-10.0 170.0)
 end
 begin
     id 9 
     name rfoot
     direction -0.077777 -0.213691 0.9738   
     length 2.07539  
     axis -90 -7.62852e-016 -20   XYZ
    dof rx rz
    limits (-45.0 90.0)
           (-20.0 70.0)
  end
  begin
     id 10 
     name rtoes
     direction -1.53558e-011 -4.22006e-011 1   
     length 1.04381   
     axis -90 -7.62852e-016 -20   XYZ
    dof rx
    limits (-90.0 20.0)
  end
  begin
     id 11 
     name lowerback
     direction -0.00971646 0.996074 0.0879841   
     length 1.67643   
     axis 0 0 0   XYZ
    dof rx ry rz
    limits (-20.0 45.0)
           (-30.0 30.0)
           (-30.0 30.0)
  end
  begin
     id 12 
     name upperback
     direction 0.0127391 0.991676 0.128127   
     length 1.63741   
     axis 0 0 0   XYZ
    dof rx ry rz
    limits (-20.0 45.0)
           (-30.0 30.0)
           (-30.0 30.0)
  end
  begin
     id 13 
     name thorax
     direction 0.0167583 0.996049 0.0872067   
     length 1.65931   
     axis 0 0 0   XYZ
    dof rx ry rz
    limits (-20.0 45.0)
           (-30.0 30.0)
           (-30.0 30.0)
  end
  begin
     id 14 
     name lowerneck
     direction -0.0317829 0.998312 0.0486079   
     length 1.79021   
     axis 0 0 0   XYZ
    dof rx ry rz
    limits (-20.0 45.0)
           (-30.0 30.0)
           (-30.0 30.0)
  end
  begin
     id 15 
     name upperneck
     direction 0.0896851 0.972452 -0.215159   
     length 1.78797   
     axis 0 0 0   XYZ
    dof rx ry rz
    limits (-20.0 45.0)
           (-30.0 30.0)
           (-30.0 30.0)
  end
  begin
     id 16
     name head
     direction 0.0310949 0.996503 -0.0775582  
     length 1.81549  
     axis 0 0 0   XYZ
    dof rx ry rz
    limits (-20.0 45.0)
           (-30.0 30.0)
           (-30.0 30.0)
  end
  begin
     id 17 
     name lclavicle
     direction 0.853638 0.502051 -0.138733  
     length 3.31627  
     axis 0 0 0   XYZ
    dof ry rz
    limits (-20.0 10.0)
           (0.0 20.0)
  end
  begin
     id 18 
     name lhumerus
     direction 1 -4.48962e-011 -1.41788e-018   
     length 5.54893   
     axis 180 -30 -90   XYZ
    dof rx ry rz
    limits (-60.0 90.0)
           (-90.0 90.0)
           (-90.0 90.0)
  end
  begin
     id 19
     name lradius
     direction 1 -4.48962e-011 -4.95754e-027   
     length 3.02898   
     axis 180 -30 -90   XYZ
    dof rx
    limits (-10.0 170.0)
  end
  begin
     id 20
     name lwrist
     direction 1 -4.48952e-011 -1.03764e-026   
     length 1.51449   
     axis 9.09556e-015 90 90   XYZ
    dof ry
    limits (-180.0 0.0)
 end
  begin
     id 21 
     name lhand
     direction 1 -4.4902e-011 -2.07528e-026   
     length 0.640951   
     axis 1.3242e-014 90 90   XYZ
    dof rx rz
    limits (-90.0 90.0)
           (-45.0 45.0)
  end
  begin
     id 22 
     name lfingers
     direction 1 -4.49014e-011 -4.15056e-026   
     length 0.516751   
     axis 2.64841e-014 90 90   XYZ
    dof rx
    limits (0.0 90.0)
  end
  begin
     id 23
     name lthumb
     direction 0.707107 -6.35008e-011 0.707107   
     length 0.741954   
     axis -90 45 2.85299e-015   XYZ
    dof rx rz
    limits (-45.0 45.0)
           (-45.0 45.0)
  end
  begin
     id 24 
     name rclavicle
     direction -0.888531 0.455324 -0.0565039   
     length 3.20126  
     axis 0 0 0   XYZ 
    dof ry rz
    limits (-10.0 20.0)
           (-20.0 0.0)
  end
  begin
     id 25 
     name rhumerus
     direction -1 -4.48946e-011 -8.98298e-028  
     length 5.3519   
     axis 180 30 90   XYZ
    dof rx ry rz
    limits (-90.0 60.0)
           (-90.0 90.0)
           (-90.0 90.0)
  end
  begin
     id 26 
     name rradius
     direction -1 -4.4899e-011 -3.18779e-027   
     length 3.02531   
     axis 180 30 90   XYZ
    dof rx
    limits (-10.0 170.0)
  end
  begin
     id 27 
     name rwrist
     direction -1 -4.4897e-011 -1.03764e-026   
     length 1.51266   
     axis 9.09556e-015 -90 -90   XYZ
    dof ry
    limits (-180.0 0.0)
  end
  begin
     id 28
     name rhand
     direction -1 -4.48941e-011 -2.07528e-026   
     length 0.78389   
     axis 1.3242e-014 -90 -90   XYZ
    dof rx rz
    limits (-90.0 90.0)
           (-45.0 45.0)
  end
  begin
     id 29
     name rfingers
     direction -1 -4.49012e-011 -4.15056e-026   
     length 0.631992   
     axis 2.64841e-014 -90 -90   XYZ
    dof rx
    limits (0.0 90.0)
  end
  begin
     id 30
     name rthumb
     direction -0.707107 -6.3496e-011 0.707107   
     length 0.907418   
     axis -90 -45 -2.85299e-015   XYZ
    dof rx rz
    limits (-45.0 45.0)
           (-45.0 45.0)
  end
:hierarchy
  begin
    root lhipjoint rhipjoint lowerback
    lhipjoint lfemur
    lfemur ltibia
    ltibia lfoot
    lfoot ltoes
    rhipjoint rfemur
    rfemur rtibia
    rtibia rfoot
    rfoot rtoes
    lowerback upperback
    upperback thorax
    thorax lowerneck lclavicle rclavicle
    lowerneck upperneck
    upperneck head
    lclavicle lhumerus
    lhumerus lradius
    lradius lwrist
    lwrist lhand lthumb
    lhand lfingers
    rclavicle rhumerus
    rhumerus rradius
    rradius rwrist
    rwrist rhand rthumb
    rhand rfingers
  end

#!OML:ASF E:\Style3\Style3.ASF
:FULLY-SPECIFIED
:DEGREES
2503
root -0.350668 17.8692 0.715577 -143.823 85.227 -155.371
lowerback -6.43401 -0.743888 -0.404391
upperback -4.43115 -0.82853 2.12471
thorax -0.921899 -0.319164 2.36659
lowerneck -4.00403 -8.03388 -11.3627
upperneck 38.9542 -13.6654 17.0119
head 17.1037 -4.69357 7.99328
rclavicle 9.29629e-015 -1.74931e-014
rhumerus -7.67474 49.8072 -87.8345
rradius 132.543
rwrist 5.40706
rhand -29.9129 40.0409
rfingers 7.12502
rthumb -3.23334 10.0856
lclavicle 9.29629e-015 -1.74931e-014
lhumerus 6.51807 -44.443 78.9296
lradius 133.725
lwrist -23.7799
lhand -33.1298 -0.821595
lfingers 7.12502
lthumb -6.33955 29.0635
rfemur -9.15732 11.559 16.1669
rtibia 7.29978
rfoot -7.33759 -21.343
rtoes -24.1749
lfemur 0 0 0
ltibia 0
lfoot 0 0
ltoes 0
2504
root -0.348511 17.8693 0.71623 -143.652 85.2032 -155.249
lowerback -6.46101 -0.766985 -0.799571
upperback -4.41065 -0.840991 2.19299
thorax -0.879109 -0.317145 2.65854
lowerneck -3.43486 -8.72733 -11.8201
upperneck 38.0178 -14.8078 17.4218
head 16.8232 -5.27157 7.98032
rclavicle -4.76151e-015 1.74931e-014
rhumerus -7.86059 49.6227 -87.9778
rradius 132.423
rwrist 5.41253
rhand -29.9296 39.8906
rfingers 7.12502
rthumb -3.24943 9.93566
lclavicle -4.76151e-015 1.74931e-014
lhumerus 6.87295 -43.8 78.5824
lradius 134.1
lwrist -24.691
lhand -34.1273 -0.255928
lfingers 7.12502
lthumb -7.30249 29.5981
rfemur -9.12836 11.5446 16.1848
rtibia 7.16876
rfoot -7.33476 -21.3191
rtoes -24.176
lfemur 0 0 0
ltibia 0
lfoot 0 0
ltoes 0
2505
root -0.348363 17.8692 0.717423 -143.54 85.1783 -155.179
lowerback -6.45393 -0.785081 -1.13796
upperback -4.41502 -0.84819 2.2566
thorax -0.882069 -0.312848 2.91478
lowerneck -2.6264 -9.38927 -12.3209
upperneck 36.9364 -15.8972 17.8921
head 16.4253 -5.84876 8.00347
rclavicle 2.44948e-015 -2.98177e-015
rhumerus -8.1404 49.4467 -88.1489
rradius 132.337
rwrist 5.55763
rhand -30.0894 39.944
rfingers 7.12502
rthumb -3.40378 9.99143
lclavicle 2.44948e-015 -2.98177e-015
lhumerus 7.24016 -43.1075 78.1995
lradius 134.536
lwrist -25.5863
lhand -35.0561 0.500277
lfingers 7.12502
lthumb -8.1989 30.3212
rfemur -9.14222 11.5267 16.1976
rtibia 7.10597
rfoot -7.30893 -21.3129
rtoes -24.0012
lfemur 0 0 0
ltibia 0
lfoot 0 0
ltoes 0
2506
root -0.348565 17.869 0.718807 -143.175 85.1431 -154.832
lowerback -6.37573 -0.816366 -1.18506
upperback -4.42789 -0.887549 2.2862
thorax -0.935372 -0.330547 2.97065
lowerneck -1.77008 -9.98973 -13.0661
upperneck 35.8084 -16.9057 18.5297
head 16.057 -6.42403 8.17121
rclavicle 9.12604e-015 -4.17448e-015
rhumerus -8.44834 49.4194 -88.3987
rradius 132.293
rwrist 5.80487
rhand -30.2283 40.4683
rfingers 7.12502
rthumb -3.53788 10.5179
lclavicle 9.12604e-015 -4.17448e-015
lhumerus 7.57944 -42.2705 77.7454
lradius 134.985
lwrist -26.3372
lhand -35.4028 1.90212
lfingers 7.12502
lthumb -8.53353 31.7097
rfemur -9.16912 11.5175 16.2488
rtibia 7.11798
rfoot -7.35829 -21.3207
rtoes -23.9948
lfemur 0 0 0
ltibia 0
lfoot 0 0
ltoes 0
2507
root -0.348578 17.8697 0.720629 -143.312 85.1515 -154.993
lowerback -6.24287 -0.864145 -1.08494
upperback -4.44472 -0.956697 2.27382
thorax -1.02381 -0.366732 2.89917
lowerneck -1.02962 -10.535 -14.087
upperneck 34.6936 -17.8499 19.3255
head 15.8042 -6.99777 8.48024
rclavicle -4.77454e-015 5.96354e-015
rhumerus -8.71027 49.471 -88.6571
rradius 132.267
rwrist 6.06297
rhand -30.4019 40.8314
rfingers 7.12502
rthumb -3.70561 10.8839
lclavicle -4.77454e-015 5.96354e-015
lhumerus 8.06996 -41.2695 77.1066
lradius 135.509
lwrist -26.533
lhand -35.462 4.1259
lfingers 7.12502
lthumb -8.59063 33.9311
rfemur -9.2085 11.5159 16.2294
rtibia 7.14168
rfoot -7.35433 -21.3392
rtoes -24.0614
lfemur 0 0 0
ltibia 0
lfoot 0 0
ltoes 0
2508
root -0.348168 17.8693 0.721677 -143.399 85.1531 -155.094
lowerback -6.0995 -0.887238 -1.26634
upperback -4.41242 -0.982751 2.29604
thorax -1.0654 -0.376783 3.02449
lowerneck -0.416938 -11.1974 -14.6346
upperneck 33.5365 -18.9484 19.9207
head 15.5386 -7.58801 8.55755
rclavicle 6.07536e-015 -1.2921e-014
rhumerus -8.81024 49.2836 -88.768
rradius 132.208
rwrist 6.28505
rhand -30.8237 40.436
rfingers 7.12502
rthumb -4.11285 10.496
lclavicle 6.07536e-015 -1.2921e-014
lhumerus 8.86044 -40.3531 76.3226
lradius 135.971
lwrist -26.6802
lhand -35.9182 6.09981
lfingers 7.12502
lthumb -9.03087 35.8865
rfemur -9.22642 11.5125 16.2199
rtibia 7.15269
rfoot -7.35178 -21.3157
rtoes -24.2514
lfemur 0 0 0
ltibia 0
lfoot 0 0
ltoes 0
